<?xml version="1.0" encoding="UTF-8"?>
<svg width="54px" height="42px" viewBox="0 0 54 42" version="1.1" xmlns="http://www.w3.org/2000/svg" xmlns:xlink="http://www.w3.org/1999/xlink">
    <title>Shape@1x</title>
    <g id="Page-1" stroke="none" stroke-width="1" fill="none" fill-rule="evenodd">
        <g id="HP_Trident-Search_V1" transform="translate(-584.000000, -3275.000000)" fill="#F69C1D">
            <g id="Group-35" transform="translate(553.000000, 3275.000000)">
                <path d="M36.6577597,41.6740465 C36.1792486,41.994491 34.9780377,42.2764387 34.2753444,41.5046068 L32.9787602,39.8915403 C32.3517079,38.8426404 33.1111319,37.8699207 33.6027979,37.4665185 C35.9402671,35.5484605 37.6399955,34.0647105 38.7006129,33.0152684 C40.7804644,30.8515905 42.3179485,28.6857438 43.3330717,26.5264036 C43.5652017,26.0327239 42.9726811,25.7193281 42.6649102,25.619562 C35.0002367,23.1346263 31.1666667,18.7538631 31.1666667,12.4780857 C31.1666667,8.78050363 32.4081645,5.77586235 34.88979,3.46605962 C37.3725116,1.15490137 40.4825597,-7.10542736e-15 44.219112,-7.10542736e-15 C47.5478611,-7.10542736e-15 50.4975833,1.50164288 53.0666343,4.50601306 C55.5784065,7.33579251 56.8333333,10.39845 56.8333333,13.6912744 C56.8336074,23.3417495 50.1086902,32.6690691 36.6577597,41.6740465 Z M64.6574856,41.6740465 C64.1789745,41.994491 62.9777637,42.2764387 62.2750704,41.5046068 L60.9784862,39.8915403 C60.3514338,38.8426404 61.1108578,37.8699207 61.6025239,37.4665185 C63.939719,35.5484605 65.6397215,34.0647105 66.7003388,33.0152684 C68.7801903,30.8515905 70.3176745,28.6857438 71.3330717,26.5264036 C71.5652017,26.0327239 70.9726811,25.7193281 70.6649102,25.619562 C63.0002367,23.1346263 59.1666667,18.7538631 59.1666667,12.4780857 C59.1666667,8.78050363 60.4081645,5.77586235 62.88979,3.46605962 C65.3727857,1.15490137 68.4825597,-7.10542736e-15 72.219112,-7.10542736e-15 C75.5478611,-7.10542736e-15 78.4975833,1.50164288 81.0666343,4.50601306 C83.5781324,7.33579251 84.8333333,10.39845 84.8333333,13.6912744 C84.8333333,23.3417495 78.1084162,32.6690691 64.6574856,41.6740465 Z" id="Shape" transform="translate(58.000000, 21.000000) rotate(-180.000000) translate(-58.000000, -21.000000) "></path>
            </g>
        </g>
    </g>
</svg>