<?xml version="1.0" encoding="UTF-8"?>
<svg width="18px" height="18px" viewBox="0 0 18 18" version="1.1" xmlns="http://www.w3.org/2000/svg" xmlns:xlink="http://www.w3.org/1999/xlink">
    <title>Shape</title>
    <g id="Pages" stroke="none" stroke-width="1" fill="none" fill-rule="evenodd">
        <path d="M17.7042969,16.2847542 L14.3053918,12.8958459 C15.4020232,11.4987507 15.9970563,9.77350669 15.9948476,7.9974238 C15.9948476,3.5805686 12.414279,0 7.9974238,0 C3.5805686,0 0,3.5805686 0,7.9974238 C0,12.414279 3.5805686,15.9948476 7.9974238,15.9948476 C9.77350669,15.9970563 11.4987507,15.4020232 12.8958459,14.3053918 L16.2847542,17.7042969 C16.4724603,17.8935486 16.7279739,18 16.9945256,18 C17.2610772,18 17.5165908,17.8935486 17.7042969,17.7042969 C17.8935486,17.5165908 18,17.2610772 18,16.9945256 C18,16.7279739 17.8935486,16.4724603 17.7042969,16.2847542 Z M1.99935595,7.9974238 C1.99935595,4.6847824 4.6847824,1.99935595 7.9974238,1.99935595 C11.3100652,1.99935595 13.9954916,4.6847824 13.9954916,7.9974238 C13.9954916,11.3100652 11.3100652,13.9954916 7.9974238,13.9954916 C4.6847824,13.9954916 1.99935595,11.3100652 1.99935595,7.9974238 Z" id="Shape" fill="#005A9F"></path>
    </g>
</svg>